# xmcd
#
# Track frame offsets: 
#        183
#        22738
#        35805
#        47490
#        59550
#        74595
#        86855
#        99658
#        112678
#        124923
#        137245
#        149463
#        160458
#        172378
#        185165
#        193943
#
# Disc length: 2945 seconds
#
# Revision: 8
# Processed by: cddbd v1.5.2PL0 Copyright (c) Steve Scherf et al.
# Submitted via: ExactAudioCopyFreeDBPlugin 1.0
#
DISCID=fc0b7f10
DTITLE=Various Artist - Play Me The Blues - Legendary Blues Singers - CD10
DYEAR=1991
DGENRE=Blues
TTITLE0=Howlin' Wolf - Wang Dang Doodle
TTITLE1=Little Walter - Everybody Needs Somebody
TTITLE2=B.B. King - Every Day I Have The Blues
TTITLE3=Memphis Slim - Really Got The Blues
TTITLE4=Elmore James - Wild About You Baby
TTITLE5=John Lee Hooker - Frisco
TTITLE6=Sonny Boy Williamson - Keep It To Yourself
TTITLE7=Muddy Waters - I Just Want To Make Love To You
TTITLE8=Howlin' Wolf - Spoonful
TTITLE9=Elmore James - Late Hours At Midnight
TTITLE10=Memphis Slim - For A Day
TTITLE11=Little Walter - Blue Midnight
TTITLE12=The Animals - Sonny Boy Williamson II. - Bye, Bye, Sonny, Bye,
TTITLE12=Bye
TTITLE13=Howlin' Wolf - Back Door Man
TTITLE14=Big Joe Williams - Goin' Away, Won't Be Back 'Till Fall
TTITLE15=John Mayall - Mexico City
EXTD=
EXTT0=
EXTT1=
EXTT2=
EXTT3=
EXTT4=
EXTT5=
EXTT6=
EXTT7=
EXTT8=
EXTT9=
EXTT10=
EXTT11=
EXTT12=
EXTT13=
EXTT14=
EXTT15=
PLAYORDER=
